<svg width="340" height="340" viewBox="0 0 340 340" fill="none" xmlns="http://www.w3.org/2000/svg">
<path d="M276.25 32C246.906 32 223.125 55.7821 223.125 85.125C223.125 93.0526 224.868 100.585 227.981 107.33L276.25 202L324.519 107.329C327.632 100.585 329.375 93.0526 329.375 85.125C329.375 55.7821 305.594 32 276.25 32ZM276.25 117C258.652 117 244.375 102.723 244.375 85.125C244.375 67.5273 258.652 53.25 276.25 53.25C293.848 53.25 308.125 67.5273 308.125 85.125C308.125 102.723 293.848 117 276.25 117ZM292.146 217.585L311.487 256.246L262.45 280.754L246.015 198.535L248.774 195.775L249.065 195.484L238.938 175.562L233.75 180.75L170 138.25L106.25 180.75L63.75 138.25L0 265.75L85 308.25L170 265.75L255 308.25L340 265.75L304.141 194.052L292.146 217.585ZM77.5293 280.754L28.5129 256.246L69.5605 174.109L91.2256 195.774L93.9854 198.534L77.5293 280.754ZM159.375 247.302L99.9414 277.018L115.298 200.257L118.037 198.431L159.375 170.872V247.302ZM180.625 247.302V170.872L221.963 198.431L224.682 200.257L240.038 277.018L180.625 247.302Z" fill="#D7EFEE"/>
</svg>
